HIERARCHY
ROOT Hips
{
	OFFSET 0.000000 0.000000 0.000000
	CHANNELS 6 Xposition Yposition Zposition Zrotation Yrotation Xrotation 
	JOINT LHipJoint
	{
		OFFSET 0.000000 0.000000 0.000000
		CHANNELS 3 Zrotation Yrotation Xrotation
		JOINT LeftUpLeg
		{
			OFFSET 1.363060 -1.794630 0.839290
			CHANNELS 3 Zrotation Yrotation Xrotation
			JOINT LeftLeg
			{
				OFFSET 2.448110 -6.726130 0.000000
				CHANNELS 3 Zrotation Yrotation Xrotation
				JOINT LeftFoot
				{
					OFFSET 2.562200 -7.039590 0.000000
					CHANNELS 3 Zrotation Yrotation Xrotation
					JOINT LeftToeBase
					{
						OFFSET 0.157640 -0.433110 2.322550
						CHANNELS 3 Zrotation Yrotation Xrotation
						End Site
						{
							OFFSET 0.000000 0.000000 0.000000
						}
					}
				}
			}
		}
	}
	JOINT RHipJoint
	{
		OFFSET 0.000000 0.000000 0.000000
		CHANNELS 3 Zrotation Yrotation Xrotation
		JOINT RightUpLeg
		{
			OFFSET -1.305520 -1.794630 0.839290
			CHANNELS 3 Zrotation Yrotation Xrotation
			JOINT RightLeg
			{
				OFFSET -2.542530 -6.985550 0.000000
				CHANNELS 3 Zrotation Yrotation Xrotation
				JOINT RightFoot
				{
					OFFSET -2.568260 -7.056230 0.000000
					CHANNELS 3 Zrotation Yrotation Xrotation
					JOINT RightToeBase
					{
						OFFSET -0.164730 -0.452590 2.363150
						CHANNELS 3 Zrotation Yrotation Xrotation
						End Site
						{
							OFFSET 0.000000 0.000000 0.000000
						}
					}
				}
			}
		}
	}
}
MOTION
Frames: 31
Frame Time: 0.008333
-11.268034 16.897229 -0.516333 -58.362071 87.959110 -47.315252 -11.702912 3.530574 -0.651668 -3.861214 5.154169 -2.736833 -0.250542 2.192064 36.622611 0.604673 1.144505 7.071064 0.126600 0.000000 -79.188100 8.059775 -0.955161 3.375129 10.044258 7.066391 -32.029264 2.874905 -0.107658 8.484795 0.039324 -1.326807 10.216383 -1.192000 0.000000 -33.693200
-11.093927 16.921089 -0.504494 -67.305680 87.696348 -56.323206 -11.941880 3.439829 -0.685805 -3.184396 5.528953 -4.228501 0.053507 2.320995 39.568870 0.784411 1.675481 9.761717 0.213799 -0.000000 -77.116500 7.909250 -1.089867 3.332420 10.680381 7.112367 -31.623861 2.917360 -0.184033 9.328557 0.021298 -1.352442 9.627211 -1.179000 0.000000 -33.036800
-10.923760 16.944647 -0.491623 -74.243955 87.437016 -63.312067 -12.155358 3.316444 -0.706557 -2.636790 5.801439 -5.791407 0.326654 2.425480 42.524923 0.997764 2.462746 12.233896 0.408000 0.000001 -73.584400 7.775347 -1.211669 3.273925 11.296224 7.051961 -31.179052 2.965201 -0.243105 10.065717 0.000826 -1.379276 8.935326 -1.162600 -0.000001 -32.385900
-10.757610 16.967910 -0.477340 -80.040960 87.208011 -69.146256 -12.336627 3.167517 -0.715686 -2.235647 5.961509 -7.407869 0.561977 2.512861 45.457074 1.231326 3.532612 14.338957 0.746100 0.000000 -68.856801 7.662340 -1.318730 3.201525 11.865115 6.890951 -30.694410 3.014297 -0.284573 10.681067 -0.021661 -1.404841 8.174578 -1.142000 0.000001 -31.727201
-10.595321 16.991038 -0.461845 -85.324962 87.013800 -74.453752 -12.488460 2.999403 -0.715307 -1.971640 6.013865 -9.067555 0.760321 2.591402 48.334659 1.472450 4.882812 15.965443 1.240601 0.000000 -63.410900 7.566931 -1.412782 3.120130 12.377168 6.651518 -30.166802 3.063269 -0.307199 11.154017 -0.046564 -1.436025 7.383246 -1.120400 0.000000 -31.048700
-10.436672 17.014180 -0.445231 -90.416397 86.854315 -79.554664 -12.613782 2.819205 -0.706677 -1.837201 5.962730 -10.757572 0.927201 2.668319 51.123724 1.712554 6.490883 17.054826 1.877900 0.000000 -57.813300 7.487422 -1.494242 3.032789 12.822866 6.352412 -29.597590 3.110824 -0.311055 11.476610 -0.072955 -1.471078 6.592994 -1.098000 0.000000 -30.358600
-10.281217 17.037556 -0.427810 -95.508085 86.720924 -84.637994 -12.718268 2.632132 -0.688135 -1.814971 5.813425 -12.474463 1.070369 2.747905 53.796739 1.946731 8.307035 17.592792 2.615900 0.000001 -52.573900 7.419299 -1.565057 2.945988 13.201265 6.020359 -28.995614 3.156567 -0.296314 11.645951 -0.100588 -1.514285 5.832505 -1.077299 -0.000000 -29.672300
-10.128737 17.061361 -0.409507 -100.605679 86.614643 -89.713788 -12.801134 2.444706 -0.661579 -1.904152 5.572153 -14.196863 1.195874 2.833080 56.323429 2.172061 10.264848 17.591023 3.393801 0.000000 -47.944700 7.366154 -1.622916 2.857841 13.501494 5.662073 -28.365331 3.198156 -0.266074 11.679738 -0.126885 -1.551644 5.117860 -1.054599 -0.000000 -29.033300
-9.978673 17.085709 -0.390683 -105.714280 86.525323 -94.781917 -12.866663 2.259852 -0.624225 -2.085138 5.248791 -15.924166 1.308819 2.923086 58.681256 2.386808 12.278409 17.091945 4.138600 -0.000000 -44.128800 7.324354 -1.669943 2.775253 13.728168 5.303442 -27.719744 3.235104 -0.221750 11.588989 -0.152213 -1.590501 4.465185 -1.033500 0.000000 -28.471000
-9.830800 17.110676 -0.371482 -110.726966 86.451413 -99.741845 -12.913970 2.081363 -0.580304 -2.347591 4.862802 -17.637375 1.411047 3.017703 60.847377 2.586706 14.248062 16.122051 4.769000 -0.000000 -40.881899 7.296154 -1.705047 2.696208 13.880453 4.952431 -27.059555 3.265762 -0.166938 11.396402 -0.175415 -1.625267 3.880371 -1.012700 0.000000 -28.024700
-9.684614 17.136228 -0.352137 -115.554156 86.389713 -104.501677 -12.943971 1.910816 -0.528102 -2.675309 4.427440 -19.329679 1.502843 3.112879 62.794223 2.769483 16.084784 14.768391 5.225800 0.000000 -38.278800 7.280153 -1.729981 2.624893 13.965278 4.626087 -26.393362 3.289420 -0.103971 11.120013 -0.197273 -1.663119 3.367677 -0.994799 0.000000 -27.718500
-9.539889 17.162290 -0.332836 -120.086680 86.341641 -108.956636 -12.955789 1.749739 -0.470167 -3.055015 3.962430 -20.985839 1.582234 3.205183 64.497366 2.930034 17.700523 13.105886 5.463100 0.000000 -36.111200 7.276811 -1.745547 2.560559 13.988922 4.330492 -25.720490 3.305426 -0.035809 10.779305 -0.217876 -1.704979 2.925149 -0.980100 -0.000000 -27.570200
-9.396354 17.188697 -0.313788 -124.254507 86.311082 -113.039447 -12.948725 1.598829 -0.407208 -3.474568 3.483545 -22.593037 1.646115 3.290011 65.932347 3.063630 19.027945 11.238261 5.469601 -0.000000 -34.304500 7.286024 -1.753305 2.502986 13.958745 4.068204 -25.041067 3.313577 0.035098 10.390966 -0.237439 -1.752008 2.548242 -0.968600 -0.000001 -27.584700
-9.253933 17.215243 -0.295147 -128.004327 86.303276 -116.703857 -12.922490 1.458029 -0.342867 -3.922265 3.009138 -24.133814 1.690814 3.363762 67.079473 3.164856 20.017958 9.264745 5.260899 -0.000000 -32.711300 7.307318 -1.754522 2.448377 13.884009 3.834540 -24.347322 3.314377 0.106556 9.966828 -0.255539 -1.800996 2.230534 -0.959500 0.000000 -27.751900
-9.112484 17.241663 -0.277117 -131.335399 86.323120 -119.952383 -12.877426 1.327034 -0.277784 -4.389343 2.551719 -25.597240 1.713242 3.422554 67.923406 3.230302 20.652292 7.300633 4.885701 -0.000000 -31.324900 7.339791 -1.751076 2.394869 13.772962 3.622342 -23.636071 3.308845 0.177230 9.515274 -0.271503 -1.847121 1.964395 -0.951300 0.000000 -28.051200
-8.971944 17.267654 -0.259797 -134.271918 86.375151 -122.813744 -12.814408 1.205299 -0.213435 -4.868711 2.122640 -26.973677 1.711368 3.463903 68.456172 3.258190 20.937684 5.442689 4.406400 -0.000000 -30.105600 7.382349 -1.744407 2.339453 13.633925 3.420611 -22.902650 3.298547 0.246367 9.040376 -0.284019 -1.881587 1.741494 -0.942100 -0.000000 -28.450900
-8.832350 17.292934 -0.243327 -136.849814 86.461111 -125.328273 -12.735009 1.092096 -0.150689 -5.354265 1.730024 -28.254929 1.684863 3.486128 68.675236 3.249930 20.908088 3.776782 3.891500 0.000000 -29.092500 7.433621 -1.735875 2.279292 13.474436 3.217122 -22.141266 3.285388 0.313800 8.542626 -0.291488 -1.894006 1.553987 -0.929500 -0.000000 -28.911600
-8.693608 17.317214 -0.228026 -139.035904 86.575453 -127.464640 -12.643101 0.984662 -0.091099 -5.831689 1.383864 -29.439398 1.635525 3.488561 68.586565 3.209949 20.617087 2.368161 3.401000 -0.000001 -28.345700 7.488977 -1.727641 2.213784 13.309405 3.009988 -21.345530 3.272275 0.380590 8.013891 -0.293251 -1.880827 1.397293 -0.913000 -0.000000 -29.374300
-8.555689 17.340196 -0.213389 -141.128391 86.730737 -129.521770 -12.534770 0.888410 -0.032790 -6.327592 1.070553 -30.522117 1.562703 3.473101 68.202224 3.142661 20.117834 1.160910 2.945700 0.000000 -27.392500 7.556303 -1.716589 2.136672 13.119335 2.761989 -20.529638 3.258733 0.445009 7.472646 -0.284267 -1.807016 1.256520 -0.884800 -0.000000 -29.862200
-8.418555 17.361607 -0.200091 -142.914354 86.906038 -131.286709 -12.418401 0.796105 0.023028 -6.806246 0.802302 -31.509258 1.471895 3.439253 67.536989 3.058997 19.494342 0.216971 2.568600 -0.000000 -26.680900 7.624132 -1.707198 2.053043 12.934536 2.497179 -19.680826 3.248867 0.510156 6.895731 -0.267087 -1.690647 1.135257 -0.849700 -0.000000 -30.288700
-8.282053 17.381222 -0.188025 -144.502600 87.099681 -132.865578 -12.294060 0.708797 0.078002 -7.273140 0.569277 -32.404216 1.364768 3.388927 66.610703 2.967094 18.810280 -0.531696 2.259400 -0.000000 -26.006500 7.693719 -1.698746 1.962438 12.751072 2.205954 -18.809530 3.243035 0.575870 6.289723 -0.240287 -1.520527 1.027338 -0.805600 -0.000000 -30.659500
-8.146020 17.398841 -0.177233 -145.880046 87.303176 -134.239597 -12.164006 0.624780 0.134040 -7.720074 0.365128 -33.217388 1.243574 3.323533 65.445306 2.875123 18.122942 -1.146624 2.005700 0.000001 -25.309500 7.762230 -1.692213 1.868457 12.574987 1.896503 -17.924934 3.241967 0.642918 5.655015 -0.205002 -1.301970 0.930282 -0.754000 0.000000 -30.970100
-8.010303 17.414344 -0.167625 -147.072185 87.511932 -135.431581 -12.028947 0.543460 0.192662 -8.144803 0.181740 -33.952385 1.110157 3.244038 64.057133 2.790627 17.482519 -1.677334 1.796400 -0.000000 -24.664900 7.829127 -1.687525 1.772637 12.406164 1.572419 -17.034673 3.245267 0.711094 4.997804 -0.162180 -1.038352 0.841263 -0.695800 -0.000001 -31.237100
-7.874765 17.427629 -0.159181 -148.033624 87.718616 -136.390516 -11.890241 0.463216 0.255840 -8.539972 0.013008 -34.618505 0.965884 3.151070 62.463317 2.718464 16.917610 -2.179267 1.616300 0.000000 -24.063100 7.892298 -1.685652 1.679067 12.248744 1.246399 -16.148965 3.252402 0.780354 4.323906 -0.114413 -0.743516 0.758692 -0.633900 0.000000 -31.476000
-7.738842 17.438601 -0.152212 -148.525592 87.908287 -136.859297 -11.751285 0.378959 0.329116 -8.886308 -0.146460 -35.246159 0.813377 3.043843 60.685284 2.661272 16.437460 -2.687959 1.454600 0.000000 -23.507600 7.945297 -1.690684 1.600379 12.118881 0.954301 -15.289304 3.263427 0.852187 3.632773 -0.067453 -0.452523 0.682135 -0.575200 0.000000 -31.688600
-7.603037 17.447327 -0.145999 -148.813825 88.096091 -137.125244 -11.607338 0.296909 0.404696 -9.207189 -0.294594 -35.794506 0.649133 2.924105 58.716937 2.619186 16.039412 -3.259217 1.293800 -0.000000 -22.804800 7.997337 -1.697026 1.521150 11.992147 0.661167 -14.437919 3.274996 0.922163 2.949120 -0.018475 -0.142762 0.603409 -0.514400 0.000000 -31.932000
-7.466687 17.453708 -0.141060 -148.476812 88.260809 -136.741633 -11.463621 0.209443 0.491907 -9.474848 -0.434668 -36.307553 0.479489 2.788487 56.573976 2.592090 15.714074 -3.833153 1.147100 -0.000000 -22.262500 8.039440 -1.711495 1.460064 11.894277 0.416463 -13.622723 3.287790 0.992758 2.267087 0.024812 0.135938 0.523629 -0.460900 -0.000000 -32.191400
-7.329792 17.457779 -0.137299 -147.412182 88.400685 -135.608372 -11.319567 0.117109 0.588655 -9.692093 -0.561438 -36.778987 0.305018 2.636483 54.258581 2.576375 15.434869 -4.405903 1.011200 -0.000000 -21.732000 8.073785 -1.733982 1.415015 11.823982 0.218018 -12.842520 3.300589 1.062449 1.596204 0.061251 0.377701 0.437789 -0.415100 -0.000000 -32.481400
-7.192308 17.459511 -0.134754 -145.478460 88.510607 -133.584817 -11.175209 0.020828 0.695502 -9.859385 -0.670768 -37.207950 0.129801 2.466903 51.771349 2.568168 15.182612 -4.905948 0.901500 0.000000 -21.371900 8.102795 -1.765035 1.386074 11.782559 0.064200 -12.098442 3.312750 1.130298 0.943765 0.089841 0.576875 0.341380 -0.377400 -0.000000 -32.802700
-7.054721 17.458930 -0.133310 -142.695919 88.593706 -130.714686 -11.028779 -0.074368 0.801825 -9.990590 -0.743644 -37.554806 -0.048075 2.280963 49.107295 2.560885 14.924922 -5.331683 0.814000 -0.000000 -20.919699 8.133434 -1.801070 1.358410 11.760689 -0.077159 -11.359210 3.323259 1.193566 0.314899 0.113631 0.753618 0.234808 -0.343600 0.000000 -33.188100
-6.916497 17.455880 -0.133336 -138.764805 88.633643 -126.679558 -10.881630 -0.167698 0.916050 -10.076655 -0.783303 -37.856197 -0.220786 2.078315 46.284161 2.549704 14.651109 -5.571005 0.776900 -0.000000 -20.696300 8.165502 -1.844477 1.343568 11.773351 -0.186829 -10.650814 3.333537 1.254353 -0.288517 0.130325 0.892427 0.111280 -0.316399 -0.000000 -33.582499
